<svg width="48" height="28" viewBox="0 0 48 28" fill="none" xmlns="http://www.w3.org/2000/svg">
<path fill-rule="evenodd" clip-rule="evenodd" d="M44.1099 6.16084L47.4035 0.196365C43.2758 0.196365 39.4616 2.46679 37.3207 6.16084H44.1099Z" fill="#4C86EB"/>
<path fill-rule="evenodd" clip-rule="evenodd" d="M34.1323 12.0289L29.5964 20.4131H23.1104L21.1053 15.3253H19.8038L13.0995 27.3773H23.4232C28.9772 27.3773 34.1119 24.2673 36.9028 19.2124L40.8698 12.0289H34.1323Z" fill="#4C86EB"/>
<path fill-rule="evenodd" clip-rule="evenodd" d="M36.4676 0H34.3021H23.9788C18.4245 0 13.2898 3.11059 10.4986 8.16586L6.10352e-05 27.1811H6.86761L17.8071 6.962H24.2932L26.3004 12.0518H27.5997L28.082 11.1847C33.7628 1.06838 36.4676 0 36.4676 0" fill="#6EC4C4"/>
</svg>
