<svg width="512" height="512" viewBox="0 0 512 512" fill="none" xmlns="http://www.w3.org/2000/svg">
<path d="M303.735 367.638C274.141 367.604 245.768 355.833 224.84 334.908C203.912 313.984 192.137 285.613 192.097 256.019V238.384H284.051C280.741 224.419 273.564 211.668 263.342 201.594C253.12 191.52 240.266 184.529 226.254 181.423C212.242 178.317 197.638 179.222 184.117 184.033C170.595 188.844 158.702 197.367 149.801 208.626C140.9 219.884 135.351 233.423 133.789 247.69C132.228 261.957 134.718 276.375 140.973 289.292C147.228 302.21 156.996 313.103 169.157 320.725C181.318 328.347 195.38 332.389 209.732 332.387V367.638C187.651 367.642 166.064 361.097 147.702 348.832C129.34 336.566 115.029 319.131 106.577 298.731C98.1246 278.331 95.9122 255.883 100.219 234.225C104.526 212.568 115.159 192.674 130.773 177.06C146.387 161.446 166.281 150.813 187.938 146.506C209.596 142.199 232.044 144.411 252.444 152.863C272.844 161.315 290.279 175.627 302.545 193.989C314.811 212.351 321.355 233.937 321.352 256.019V273.635H229.398C232.707 287.6 239.884 300.349 250.105 310.423C260.327 320.497 273.179 327.488 287.19 330.595C301.201 333.701 315.804 332.798 329.325 327.988C342.847 323.179 354.74 314.657 363.642 303.401C372.544 292.144 378.094 278.607 379.658 264.341C381.222 250.075 378.735 235.657 372.482 222.739C366.23 209.822 356.465 198.927 344.306 191.302C332.147 183.678 318.087 179.634 303.735 179.632V144.381C333.09 144.762 361.114 156.69 381.737 177.583C402.361 198.476 413.925 226.652 413.925 256.009C413.925 285.367 402.361 313.543 381.737 334.436C361.114 355.329 333.09 367.257 303.735 367.638V367.638Z" fill="url(#paint0_linear)"/>
<defs>
<linearGradient id="paint0_linear" x1="98.0938" y1="256.019" x2="415.355" y2="256.019" gradientUnits="userSpaceOnUse">
<stop stop-color="#94D1D1"/>
<stop offset="1" stop-color="#4B8AEE"/>
</linearGradient>
</defs>
</svg>
